HIERARCHY
ROOT Hips
{
	OFFSET -0.467049 105.791939 -1.111724
	CHANNELS 6 Xposition Yposition Zposition Xrotation Yrotation Zrotation
	JOINT Chest
	{
		OFFSET 0.235366 13.506577 1.916019
		CHANNELS 3 Xrotation Yrotation Zrotation
		JOINT Chest2
		{
			OFFSET -0.800438 21.205803 2.956319
			CHANNELS 3 Xrotation Yrotation Zrotation
			JOINT Chest3
			{
				OFFSET -0.614271 14.906555 -0.486936
				CHANNELS 3 Xrotation Yrotation Zrotation
				JOINT Neck
				{
					OFFSET 0.264287 17.187958 1.766369
					CHANNELS 3 Xrotation Yrotation Zrotation
					JOINT Head
					{
						OFFSET -0.390968 10.388763 1.322231
						CHANNELS 3 Xrotation Yrotation Zrotation
						End Site
						{
							OFFSET -0.386798 10.397873 1.249843
						}
					}
				}
				JOINT LeftCollar
				{
					OFFSET 4.522113 12.844009 4.047986
					CHANNELS 3 Xrotation Yrotation Zrotation
					JOINT LeftUpArm
					{
						OFFSET 14.331318 -5.129730 -8.763488
						CHANNELS 3 Xrotation Yrotation Zrotation
						JOINT LeftLowArm
						{
							OFFSET 4.029346 -33.512253 -0.649513
							CHANNELS 3 Xrotation Yrotation Zrotation
							JOINT LeftHand
							{
								OFFSET -0.560614 -28.386902 9.737396
								CHANNELS 3 Xrotation Yrotation Zrotation
								End Site
								{
									OFFSET -0.122522 -6.204124 2.128164
								}
							}
						}
					}
				}
				JOINT RightCollar
				{
					OFFSET -3.886811 12.937820 4.394781
					CHANNELS 3 Xrotation Yrotation Zrotation
					JOINT RightUpArm
					{
						OFFSET -14.494861 -5.544617 -8.225120
						CHANNELS 3 Xrotation Yrotation Zrotation
						JOINT RightLowArm
						{
							OFFSET -4.985720 -33.340302 -1.817064
							CHANNELS 3 Xrotation Yrotation Zrotation
							JOINT RightHand
							{
								OFFSET 1.864403 -28.289932 9.856913
								CHANNELS 3 Xrotation Yrotation Zrotation
								End Site
								{
									OFFSET 0.407478 -6.183044 2.154328
								}
							}
						}
					}
				}
			}
		}
	}
	JOINT LeftUpLeg
	{
		OFFSET 10.013950 -0.217850 0.304099
		CHANNELS 3 Xrotation Yrotation Zrotation
		JOINT LeftLowLeg
		{
			OFFSET 5.071339 -46.842358 -4.905504
			CHANNELS 3 Xrotation Yrotation Zrotation
			JOINT LeftFoot
			{
				OFFSET 1.948515 -42.540680 -13.677048
				CHANNELS 3 Xrotation Yrotation Zrotation
				JOINT LeftToe
				{
					OFFSET 1.829199 -16.769434 16.583115
					CHANNELS 3 Xrotation Yrotation Zrotation
					End Site
					{
						OFFSET 2.320210 -2.373213 23.421001
					}
				}
			}
		}
	}
	JOINT RightUpLeg
	{
		OFFSET -10.013958 0.217659 -0.304127
		CHANNELS 3 Xrotation Yrotation Zrotation
		JOINT RightLowLeg
		{
			OFFSET -1.589321 -47.081074 -4.985963
			CHANNELS 3 Xrotation Yrotation Zrotation
			JOINT RightFoot
			{
				OFFSET 1.397906 -42.286896 -14.506729
				CHANNELS 3 Xrotation Yrotation Zrotation
				JOINT RightToe
				{
					OFFSET -3.906489 -18.225494 14.564606
					CHANNELS 3 Xrotation Yrotation Zrotation
					End Site
					{
						OFFSET -7.065552 -4.540496 22.113752
					}
				}
			}
		}
	}
}
MOTION
Frames: 10
Frame Time: 0.033333
-0.467048 105.791939 -1.111724 0.000000 -0.000000 -0.000000 0.000001 0.000000 -0.000000 0.000002 0.000000 -0.000000 -0.000001 -0.000000 -0.000000 0.000001 -0.000000 -0.000000 0.000001 -0.000000 0.000000 -0.000001 0.000001 0.000002 -0.000000 -0.000001 0.000001 -0.000000 0.000000 -0.000001 0.000002 0.000001 -0.000000 -0.000000 0.000000 -0.000000 0.000001 0.000002 0.000001 0.000002 0.000002 -0.000000 -0.000002 -0.000001 -0.000001 0.000001 -0.000000 -0.000000 -0.000001 0.000000 -0.000000 0.000000 0.000000 -0.000000 -0.000000 -0.000001 -0.000000 -0.000001 0.000000 -0.000000 -0.000001 -0.000001 0.000001 -0.000000 -0.000002 0.000002 0.000000 0.000002 0.000001 
-0.473731 105.794357 -1.112554 -0.282941 -0.285959 0.077413 0.711151 0.009299 -0.129404 -0.856330 0.078647 -0.112363 0.564679 0.106023 0.129908 -0.058059 -0.058170 0.024595 0.000001 0.000000 0.000000 -0.092027 0.091899 0.083628 0.112457 0.168839 0.094006 -0.344575 0.076369 -0.281746 -0.000001 0.000003 -0.000001 0.029465 0.692615 0.088354 -0.247389 0.082438 0.095888 -0.237532 -0.089961 -0.357956 -0.000000 -0.000000 -0.000001 -0.114140 -0.013608 -0.079013 0.578418 -0.109034 -0.055240 -0.825236 0.046996 0.257468 -0.000000 0.000001 -0.000000 0.013914 0.009266 -0.082981 0.467892 0.142117 -0.015774 -0.412783 0.041703 0.008248 0.000000 0.000001 -0.000000 
-0.481313 105.795204 -1.107565 -0.403106 -0.307162 0.148750 0.786977 0.013835 -0.213341 -1.530388 -0.002907 0.007590 1.248413 -0.203966 0.008491 -0.144200 0.151684 -0.143285 0.000001 0.000000 0.000000 -0.168755 0.505991 0.005054 0.006917 0.070343 0.196475 -0.538624 0.105603 -0.223367 -0.000000 0.000005 -0.000001 0.063210 1.035423 0.206437 -0.318528 0.097062 0.065703 -0.047760 -0.143431 -0.369405 -0.000003 -0.000001 -0.000001 0.115503 -0.022974 -0.179657 0.522092 -0.177741 -0.010615 -0.957098 0.075538 0.310417 -0.000000 -0.000001 -0.000000 0.147201 0.028496 -0.124568 0.379640 0.182915 -0.032104 -0.222912 -0.057420 0.013767 -0.000002 0.000000 0.000000 
-0.490066 105.795914 -1.102627 -0.182910 -0.494194 0.221870 0.572070 0.031182 -0.233266 -1.118792 0.045573 -0.090601 0.943780 -0.149426 0.033138 -0.298812 0.021597 -0.139924 0.000001 0.000001 0.000000 -0.185505 0.429231 -0.026138 -0.206637 -0.041409 0.218124 -0.032305 0.177855 -0.081465 0.000002 -0.000002 0.000001 0.037492 0.779557 0.232392 -0.469495 0.147831 0.136829 0.119190 -0.142273 -0.458036 -0.000000 -0.000001 -0.000003 0.133288 0.026247 -0.267123 0.198031 -0.087552 0.012391 -0.622092 0.234847 0.289477 -0.000000 -0.000001 -0.000000 0.118033 0.012952 -0.201765 0.377543 0.135165 -0.043816 -0.311292 0.360938 0.100427 -0.000000 0.000002 0.000001 
-0.501062 105.799324 -1.102721 -0.506746 -0.381548 0.262684 0.776412 0.018756 -0.217432 -0.866979 -0.061827 0.058454 0.730209 -0.081142 -0.149181 0.204785 -0.065206 -0.087619 0.000000 -0.000000 0.000000 -0.166239 0.308011 -0.004120 -0.307580 -0.110805 0.340748 0.077886 0.217726 -0.442818 -0.000002 -0.000002 0.000001 -0.109357 -0.150355 0.233434 -0.212667 -0.038495 0.010918 0.172707 -0.191791 -0.012679 -0.000004 -0.000001 -0.000002 0.569777 0.074431 -0.261024 0.314780 -0.093141 0.031527 -0.662161 -0.009577 0.175758 -0.000001 -0.000001 0.000000 0.290213 -0.030845 -0.269761 0.823769 0.143815 0.024457 -0.628703 0.397654 0.071213 -0.000001 0.000001 -0.000001 
-0.517015 105.800056 -1.101153 -0.639445 -0.428953 0.265075 0.985887 0.007959 -0.215785 -1.417357 -0.047015 0.063142 1.085416 -0.386293 -0.162779 0.380271 0.072565 -0.207544 0.000001 -0.000000 -0.000000 -0.116713 0.337203 0.108958 -0.206444 -0.124791 0.305370 -0.244692 0.128966 -0.565001 0.000000 -0.000006 0.000001 0.036561 0.445951 0.233324 -0.031923 -0.042795 0.161748 -0.080743 -0.126064 -0.327940 -0.000002 -0.000002 -0.000001 0.676390 0.075185 -0.259981 0.546648 -0.130859 0.063346 -0.713825 -0.194806 0.096717 -0.000000 -0.000000 0.000000 0.439871 -0.021544 -0.240106 0.606601 0.130935 -0.000213 -0.436185 0.415114 0.073540 -0.000001 0.000000 -0.000000 
-0.532272 105.801376 -1.096279 -0.277243 -0.544600 0.334302 0.213578 0.048554 -0.331708 -0.760631 -0.047457 0.064244 0.784298 -0.165652 -0.089813 0.389700 0.047916 -0.130127 0.000001 0.000000 -0.000000 -0.055775 -0.078789 -0.036489 -0.179256 -0.073932 0.288194 0.164957 0.277128 -0.315046 -0.000000 0.000002 0.000000 -0.066041 -0.063566 0.405025 0.038121 -0.120319 -0.011971 0.419671 -0.289388 -0.320549 -0.000002 0.000001 -0.000002 0.659747 0.026566 -0.329222 0.117063 -0.158884 0.036139 -0.768904 -0.110899 0.117165 -0.000000 -0.000001 -0.000000 0.198741 0.031492 -0.307217 0.402348 0.184356 -0.045038 -0.369425 0.522205 0.189943 0.000001 0.000000 0.000000 
-0.549179 105.810379 -1.092698 -0.665004 -0.658716 0.407538 0.527233 0.040290 -0.406567 -0.712769 -0.012638 0.024086 0.666439 -0.216236 -0.045804 0.761772 -0.064424 -0.065782 0.000002 0.000000 0.000000 -0.003221 0.242730 -0.148421 -0.210949 -0.179868 0.324689 0.464494 0.232090 -0.274749 -0.000000 0.000001 -0.000000 -0.027674 -0.079411 0.427923 0.381557 -0.279078 -0.068468 0.217893 -0.280768 -0.327761 -0.000002 0.000001 -0.000002 1.071958 0.049711 -0.402130 0.093878 -0.187327 0.014649 -0.549262 -0.026599 0.125376 0.000000 -0.000001 -0.000000 0.519736 0.025848 -0.396799 0.497141 0.128515 -0.040972 -0.402143 0.935690 0.237602 -0.000001 0.000002 0.000001 
-0.567724 105.818306 -1.083325 -0.832320 -0.609849 0.356834 0.333675 0.040243 -0.338991 -0.927402 0.007571 -0.009573 1.005268 -0.430156 -0.059985 1.126334 -0.155864 -0.074900 0.000001 -0.000000 -0.000000 -0.076473 0.466965 -0.052583 -0.043388 0.015671 0.240827 0.561537 0.236765 -0.505976 0.000003 0.000004 0.000001 -0.048385 0.152040 0.400656 0.649489 -0.528464 -0.045060 0.235784 -0.299008 -0.229029 0.000001 -0.000001 -0.000001 1.243660 0.054093 -0.374259 0.336937 -0.187055 0.119991 -0.687221 -0.248253 0.097728 0.000000 0.000000 -0.000000 0.775706 0.004931 -0.287053 0.452275 0.068874 -0.056816 -0.388265 1.025787 0.209168 -0.000000 0.000002 0.000001 
-0.592574 105.828796 -1.077374 -1.180529 -0.481198 0.309566 0.569175 0.032329 -0.322880 -1.109823 0.058769 -0.084144 1.124386 -0.468941 0.018141 1.132579 -0.264235 -0.077148 0.000001 0.000000 0.000000 -0.171587 0.539764 -0.161652 -0.142489 0.071683 0.284488 0.925389 0.432670 -0.619371 0.000002 0.000004 0.000001 -0.128033 0.051775 0.452959 0.730310 -0.740183 -0.068935 0.566184 -0.451939 -0.198526 -0.000002 -0.000001 -0.000001 1.322950 0.024942 -0.284585 0.686368 -0.178367 0.149925 -1.352758 -0.642422 0.074505 0.000000 -0.000001 -0.000000 1.087490 -0.018991 -0.125219 0.343912 0.079742 -0.112793 -0.439567 1.008850 0.245956 0.000002 -0.000001 0.000000 
